<svg width="161" height="146" viewBox="0 0 161 146" fill="none" xmlns="http://www.w3.org/2000/svg">
<path d="M66.72 72.68H84.48V116H69.84V110.96C64 115.28 56.48 117.44 47.28 117.44C39.52 117.44 32.4 115.76 25.92 112.4C19.44 109.04 14.28 104.16 10.44 97.76C6.6 91.28 4.68 83.6 4.68 74.72C4.68 66.16 6.64 58.56 10.56 51.92C14.56 45.2 20.08 39.96 27.12 36.2C34.16 32.44 42.08 30.56 50.88 30.56C58.24 30.56 64.92 31.8 70.92 34.28C76.92 36.76 81.96 40.36 86.04 45.08L73.56 56.6C67.56 50.28 60.32 47.12 51.84 47.12C46.48 47.12 41.72 48.28 37.56 50.6C33.4 52.84 30.16 56.04 27.84 60.2C25.52 64.36 24.36 69.16 24.36 74.6C24.36 80.28 25.48 85.12 27.72 89.12C30.04 93.12 33.12 96.16 36.96 98.24C40.8 100.24 45 101.24 49.56 101.24C56.36 101.24 62.08 99.32 66.72 95.48V72.68Z" fill="white"/>
<path fill-rule="evenodd" clip-rule="evenodd" d="M161 82C161 100.778 145.778 116 127 116H93V82C93 63.2223 108.222 48 127 48C145.778 48 161 63.2223 161 82ZM108.692 79.9999C108.692 90.111 116.889 98.3076 127 98.3076C137.111 98.3076 145.307 90.111 145.307 79.9999C145.307 69.8888 137.111 61.6922 127 61.6922C116.889 61.6922 108.692 69.8888 108.692 79.9999Z" fill="#FF2B6C"/>
</svg>
