<svg width="692" height="203" viewBox="0 0 692 203" fill="none" xmlns="http://www.w3.org/2000/svg">
<path d="M50.0336 165.3H56.5136L70.4336 146.4H75.2336L60.2936 166.92L76.7936 189H71.9936L56.8736 169.02H50.0336V189H45.8936V146.4H50.0336V165.3ZM89.0045 189.6C87.5245 189.6 86.1445 189.36 84.8645 188.88C83.6245 188.36 82.5245 187.66 81.5645 186.78C80.6445 185.9 79.9245 184.88 79.4045 183.72C78.8845 182.52 78.6245 181.24 78.6245 179.88C78.6245 178.52 78.9445 177.26 79.5845 176.1C80.2245 174.94 81.1245 173.94 82.2845 173.1C83.4445 172.26 84.8245 171.62 86.4245 171.18C88.0245 170.7 89.7845 170.46 91.7045 170.46C93.3045 170.46 94.9245 170.6 96.5645 170.88C98.2045 171.16 99.6645 171.56 100.945 172.08V169.26C100.945 166.5 100.165 164.32 98.6045 162.72C97.0445 161.08 94.8845 160.26 92.1245 160.26C90.5245 160.26 88.8845 160.58 87.2045 161.22C85.5245 161.86 83.8245 162.78 82.1045 163.98L80.6645 161.28C84.7045 158.56 88.6245 157.2 92.4245 157.2C96.3445 157.2 99.4245 158.3 101.665 160.5C103.905 162.7 105.025 165.74 105.025 169.62V183.72C105.025 184.84 105.525 185.4 106.525 185.4V189C105.845 189.12 105.325 189.18 104.965 189.18C103.925 189.18 103.105 188.92 102.505 188.4C101.945 187.88 101.645 187.16 101.605 186.24L101.485 183.78C100.045 185.66 98.2245 187.1 96.0245 188.1C93.8645 189.1 91.5245 189.6 89.0045 189.6ZM89.9645 186.48C92.0845 186.48 94.0245 186.08 95.7845 185.28C97.5845 184.48 98.9445 183.42 99.8645 182.1C100.225 181.74 100.485 181.36 100.645 180.96C100.845 180.52 100.945 180.12 100.945 179.76V174.66C99.5845 174.14 98.1645 173.74 96.6845 173.46C95.2445 173.18 93.7645 173.04 92.2445 173.04C89.3645 173.04 87.0245 173.64 85.2245 174.84C83.4245 176.04 82.5245 177.62 82.5245 179.58C82.5245 180.54 82.7045 181.44 83.0645 182.28C83.4645 183.12 83.9845 183.86 84.6245 184.5C85.3045 185.1 86.1045 185.58 87.0245 185.94C87.9445 186.3 88.9245 186.48 89.9645 186.48ZM129.918 189.6C127.278 189.6 124.938 188.94 122.898 187.62C120.898 186.26 119.278 184.56 118.038 182.52V201.78H113.958V157.74H117.618V163.8C118.898 161.84 120.558 160.26 122.598 159.06C124.638 157.82 126.858 157.2 129.258 157.2C131.418 157.2 133.398 157.66 135.198 158.58C136.998 159.46 138.558 160.66 139.878 162.18C141.198 163.66 142.218 165.38 142.938 167.34C143.698 169.3 144.078 171.32 144.078 173.4C144.078 175.6 143.738 177.68 143.058 179.64C142.378 181.6 141.398 183.32 140.118 184.8C138.878 186.28 137.378 187.46 135.618 188.34C133.898 189.18 131.998 189.6 129.918 189.6ZM128.778 186C130.458 186 131.978 185.64 133.338 184.92C134.738 184.2 135.918 183.26 136.878 182.1C137.878 180.9 138.638 179.56 139.158 178.08C139.678 176.56 139.938 175 139.938 173.4C139.938 171.72 139.638 170.12 139.038 168.6C138.438 167.08 137.618 165.74 136.578 164.58C135.538 163.42 134.298 162.5 132.858 161.82C131.458 161.14 129.938 160.8 128.298 160.8C127.258 160.8 126.158 161.02 124.998 161.46C123.878 161.86 122.818 162.42 121.818 163.14C120.858 163.82 120.018 164.64 119.298 165.6C118.618 166.52 118.198 167.5 118.038 168.54V178.14C118.518 179.26 119.118 180.3 119.838 181.26C120.598 182.22 121.438 183.06 122.358 183.78C123.318 184.46 124.338 185 125.418 185.4C126.498 185.8 127.618 186 128.778 186ZM161.223 189H157.263V161.28H146.283V157.74H172.203V161.28H161.223V189ZM185.215 189.6C183.735 189.6 182.355 189.36 181.075 188.88C179.835 188.36 178.735 187.66 177.775 186.78C176.855 185.9 176.135 184.88 175.615 183.72C175.095 182.52 174.835 181.24 174.835 179.88C174.835 178.52 175.155 177.26 175.795 176.1C176.435 174.94 177.335 173.94 178.495 173.1C179.655 172.26 181.035 171.62 182.635 171.18C184.235 170.7 185.995 170.46 187.915 170.46C189.515 170.46 191.135 170.6 192.775 170.88C194.415 171.16 195.875 171.56 197.155 172.08V169.26C197.155 166.5 196.375 164.32 194.815 162.72C193.255 161.08 191.095 160.26 188.335 160.26C186.735 160.26 185.095 160.58 183.415 161.22C181.735 161.86 180.035 162.78 178.315 163.98L176.875 161.28C180.915 158.56 184.835 157.2 188.635 157.2C192.555 157.2 195.635 158.3 197.875 160.5C200.115 162.7 201.235 165.74 201.235 169.62V183.72C201.235 184.84 201.735 185.4 202.735 185.4V189C202.055 189.12 201.535 189.18 201.175 189.18C200.135 189.18 199.315 188.92 198.715 188.4C198.155 187.88 197.855 187.16 197.815 186.24L197.695 183.78C196.255 185.66 194.435 187.1 192.235 188.1C190.075 189.1 187.735 189.6 185.215 189.6ZM186.175 186.48C188.295 186.48 190.235 186.08 191.995 185.28C193.795 184.48 195.155 183.42 196.075 182.1C196.435 181.74 196.695 181.36 196.855 180.96C197.055 180.52 197.155 180.12 197.155 179.76V174.66C195.795 174.14 194.375 173.74 192.895 173.46C191.455 173.18 189.975 173.04 188.455 173.04C185.575 173.04 183.235 173.64 181.435 174.84C179.635 176.04 178.735 177.62 178.735 179.58C178.735 180.54 178.915 181.44 179.275 182.28C179.675 183.12 180.195 183.86 180.835 184.5C181.515 185.1 182.315 185.58 183.235 185.94C184.155 186.3 185.135 186.48 186.175 186.48ZM243.942 157.74H248.502L236.682 172.86L249.522 189H244.962L233.922 174.72H229.482V189H225.462V157.74H229.482V171.54H233.562L243.942 157.74ZM254.465 197.28C255.065 197.84 255.665 198.22 256.265 198.42C256.865 198.62 257.505 198.72 258.185 198.72C258.705 198.72 259.205 198.56 259.685 198.24C260.205 197.96 260.705 197.44 261.185 196.68C261.705 195.96 262.225 194.98 262.745 193.74C263.265 192.5 263.845 190.92 264.485 189L250.865 157.74H255.065L266.645 185.22L277.385 157.74H281.285L266.705 194.16C266.105 195.72 265.485 197.02 264.845 198.06C264.245 199.1 263.605 199.94 262.925 200.58C262.285 201.22 261.585 201.66 260.825 201.9C260.105 202.18 259.305 202.32 258.425 202.32C256.625 202.32 255.245 201.84 254.285 200.88L254.465 197.28ZM280.559 185.58C281.679 185.5 282.659 185.2 283.499 184.68C284.339 184.12 285.059 183.14 285.659 181.74C286.299 180.3 286.839 178.34 287.279 175.86C287.759 173.38 288.219 170.16 288.659 166.2L289.559 157.74H307.919V189H303.899V160.98H293.339L292.499 167.94C291.979 172.1 291.399 175.54 290.759 178.26C290.119 180.94 289.359 183.1 288.479 184.74C287.639 186.34 286.619 187.48 285.419 188.16C284.219 188.8 282.819 189.16 281.219 189.24L280.559 185.58ZM317.044 157.74H321.064V168.84H327.844C329.284 168.84 330.644 169.06 331.924 169.5C333.204 169.94 334.324 170.58 335.284 171.42C336.244 172.26 337.004 173.32 337.564 174.6C338.124 175.84 338.404 177.28 338.404 178.92C338.404 180.56 338.124 182.02 337.564 183.3C337.004 184.54 336.244 185.58 335.284 186.42C334.324 187.26 333.204 187.9 331.924 188.34C330.644 188.78 329.284 189 327.844 189H317.044V157.74ZM327.844 185.52C329.924 185.52 331.524 184.94 332.644 183.78C333.804 182.58 334.384 180.96 334.384 178.92C334.384 176.88 333.804 175.28 332.644 174.12C331.484 172.92 329.884 172.32 327.844 172.32H321.064V185.52H327.844ZM352.825 189H348.865V161.28H337.885V157.74H363.805V161.28H352.825V189ZM381.34 189.6C379.06 189.6 376.98 189.18 375.1 188.34C373.22 187.46 371.58 186.28 370.18 184.8C368.82 183.32 367.76 181.6 367 179.64C366.24 177.68 365.86 175.62 365.86 173.46C365.86 171.26 366.24 169.18 367 167.22C367.8 165.26 368.88 163.54 370.24 162.06C371.64 160.58 373.28 159.4 375.16 158.52C377.04 157.64 379.1 157.2 381.34 157.2C383.58 157.2 385.64 157.64 387.52 158.52C389.44 159.4 391.08 160.58 392.44 162.06C393.84 163.54 394.92 165.26 395.68 167.22C396.48 169.18 396.88 171.26 396.88 173.46C396.88 175.62 396.5 177.68 395.74 179.64C394.98 181.6 393.9 183.32 392.5 184.8C391.14 186.28 389.5 187.46 387.58 188.34C385.7 189.18 383.62 189.6 381.34 189.6ZM370 173.52C370 175.28 370.3 176.92 370.9 178.44C371.5 179.92 372.3 181.24 373.3 182.4C374.34 183.52 375.54 184.4 376.9 185.04C378.3 185.68 379.78 186 381.34 186C382.9 186 384.36 185.68 385.72 185.04C387.12 184.36 388.34 183.46 389.38 182.34C390.42 181.18 391.24 179.84 391.84 178.32C392.44 176.8 392.74 175.16 392.74 173.4C392.74 171.68 392.44 170.06 391.84 168.54C391.24 166.98 390.42 165.64 389.38 164.52C388.34 163.36 387.12 162.46 385.72 161.82C384.36 161.14 382.9 160.8 381.34 160.8C379.78 160.8 378.32 161.14 376.96 161.82C375.6 162.46 374.4 163.36 373.36 164.52C372.32 165.68 371.5 167.04 370.9 168.6C370.3 170.12 370 171.76 370 173.52ZM419.183 157.74C420.303 157.74 421.323 157.94 422.243 158.34C423.203 158.74 424.023 159.3 424.703 160.02C425.423 160.7 425.963 161.5 426.323 162.42C426.723 163.34 426.923 164.34 426.923 165.42C426.923 166.14 426.823 166.86 426.623 167.58C426.463 168.3 426.203 169 425.843 169.68C425.483 170.32 425.023 170.92 424.463 171.48C423.903 172 423.243 172.42 422.483 172.74C424.243 173.22 425.623 174.14 426.623 175.5C427.623 176.86 428.123 178.5 428.123 180.42C428.123 181.7 427.883 182.86 427.403 183.9C426.963 184.94 426.323 185.84 425.483 186.6C424.683 187.36 423.723 187.96 422.603 188.4C421.483 188.8 420.263 189 418.943 189H403.883V157.74H419.183ZM417.563 171.54C419.203 171.54 420.503 171.02 421.463 169.98C422.423 168.94 422.903 167.62 422.903 166.02C422.903 164.62 422.503 163.4 421.703 162.36C420.903 161.32 419.663 160.8 417.983 160.8H407.843V171.54H417.563ZM418.523 185.94C419.363 185.94 420.123 185.78 420.803 185.46C421.523 185.14 422.123 184.72 422.603 184.2C423.083 183.64 423.463 183.02 423.743 182.34C424.023 181.66 424.163 180.94 424.163 180.18C424.163 178.74 423.663 177.46 422.663 176.34C421.703 175.22 420.363 174.66 418.643 174.66H407.843V185.94H418.523ZM435.169 157.74H439.189V168.84H445.969C447.409 168.84 448.769 169.06 450.049 169.5C451.329 169.94 452.449 170.58 453.409 171.42C454.369 172.26 455.129 173.32 455.689 174.6C456.249 175.84 456.529 177.28 456.529 178.92C456.529 180.56 456.249 182.02 455.689 183.3C455.129 184.54 454.369 185.58 453.409 186.42C452.449 187.26 451.329 187.9 450.049 188.34C448.769 188.78 447.409 189 445.969 189H435.169V157.74ZM460.429 157.74H464.389V189H460.429V157.74ZM445.969 185.52C448.049 185.52 449.649 184.94 450.769 183.78C451.929 182.58 452.509 180.96 452.509 178.92C452.509 176.88 451.929 175.28 450.769 174.12C449.609 172.92 448.009 172.32 445.969 172.32H439.189V185.52H445.969ZM474.21 157.74L483.57 169.98L484.05 170.88L484.53 169.98L493.89 157.74H498.27L486.33 173.46L498.27 189H493.89L484.53 176.82L484.05 175.98L483.57 176.82L474.21 189H469.83L481.77 173.46L469.83 157.74H474.21ZM534.797 178.8L546.497 157.74H550.457V189H546.497V165L535.997 183.78H533.597L523.037 165V189H519.017V157.74H523.097L534.797 178.8ZM573.004 189.6C570.724 189.6 568.624 189.18 566.704 188.34C564.824 187.46 563.184 186.28 561.784 184.8C560.384 183.28 559.284 181.54 558.484 179.58C557.724 177.62 557.344 175.52 557.344 173.28C557.344 171.08 557.724 169.02 558.484 167.1C559.284 165.14 560.364 163.44 561.724 162C563.124 160.52 564.784 159.36 566.704 158.52C568.624 157.64 570.704 157.2 572.944 157.2C575.224 157.2 577.304 157.64 579.184 158.52C581.104 159.36 582.744 160.52 584.104 162C585.464 163.48 586.524 165.18 587.284 167.1C588.044 169.02 588.424 171.06 588.424 173.22C588.424 173.54 588.424 173.86 588.424 174.18C588.424 174.5 588.404 174.72 588.364 174.84H561.604C561.724 176.52 562.104 178.08 562.744 179.52C563.424 180.92 564.284 182.14 565.324 183.18C566.364 184.22 567.544 185.04 568.864 185.64C570.224 186.2 571.664 186.48 573.184 186.48C574.184 186.48 575.184 186.34 576.184 186.06C577.184 185.78 578.104 185.4 578.944 184.92C579.784 184.44 580.544 183.86 581.224 183.18C581.904 182.46 582.424 181.68 582.784 180.84L586.324 181.8C585.844 182.96 585.164 184.02 584.284 184.98C583.404 185.9 582.384 186.72 581.224 187.44C580.064 188.12 578.784 188.64 577.384 189C575.984 189.4 574.524 189.6 573.004 189.6ZM584.524 171.72C584.404 170.04 584.004 168.52 583.324 167.16C582.684 165.76 581.844 164.56 580.804 163.56C579.804 162.56 578.624 161.78 577.264 161.22C575.944 160.66 574.524 160.38 573.004 160.38C571.484 160.38 570.044 160.66 568.684 161.22C567.324 161.78 566.124 162.56 565.084 163.56C564.084 164.56 563.264 165.76 562.624 167.16C562.024 168.56 561.664 170.08 561.544 171.72H584.524ZM592.559 173.28C592.559 171.08 592.939 169 593.699 167.04C594.459 165.08 595.519 163.38 596.879 161.94C598.279 160.46 599.939 159.3 601.859 158.46C603.779 157.62 605.899 157.2 608.219 157.2C611.179 157.2 613.759 157.88 615.959 159.24C618.159 160.56 619.819 162.36 620.939 164.64L616.979 165.9C616.099 164.3 614.859 163.06 613.259 162.18C611.699 161.26 609.959 160.8 608.039 160.8C606.439 160.8 604.939 161.12 603.539 161.76C602.179 162.4 600.979 163.28 599.939 164.4C598.939 165.48 598.139 166.78 597.539 168.3C596.979 169.82 596.699 171.48 596.699 173.28C596.699 175.04 596.999 176.7 597.599 178.26C598.199 179.82 599.019 181.18 600.059 182.34C601.099 183.46 602.299 184.36 603.659 185.04C605.059 185.68 606.539 186 608.099 186C609.099 186 610.079 185.86 611.039 185.58C612.039 185.3 612.959 184.92 613.799 184.44C614.639 183.92 615.359 183.34 615.959 182.7C616.559 182.06 616.979 181.38 617.219 180.66L621.239 181.86C620.799 182.98 620.159 184.02 619.319 184.98C618.479 185.9 617.479 186.72 616.319 187.44C615.199 188.12 613.939 188.64 612.539 189C611.179 189.4 609.759 189.6 608.279 189.6C605.999 189.6 603.899 189.18 601.979 188.34C600.059 187.46 598.399 186.28 596.999 184.8C595.599 183.28 594.499 181.54 593.699 179.58C592.939 177.62 592.559 175.52 592.559 173.28ZM639.348 189H635.388V161.28H624.408V157.74H650.328V161.28H639.348V189Z" fill="white"/>
<path d="M66.72 72.68H84.48V116H69.84V110.96C64 115.28 56.48 117.44 47.28 117.44C39.52 117.44 32.4 115.76 25.92 112.4C19.44 109.04 14.28 104.16 10.44 97.76C6.6 91.28 4.68 83.6 4.68 74.72C4.68 66.16 6.64 58.56 10.56 51.92C14.56 45.2 20.08 39.96 27.12 36.2C34.16 32.44 42.08 30.56 50.88 30.56C58.24 30.56 64.92 31.8 70.92 34.28C76.92 36.76 81.96 40.36 86.04 45.08L73.56 56.6C67.56 50.28 60.32 47.12 51.84 47.12C46.48 47.12 41.72 48.28 37.56 50.6C33.4 52.84 30.16 56.04 27.84 60.2C25.52 64.36 24.36 69.16 24.36 74.6C24.36 80.28 25.48 85.12 27.72 89.12C30.04 93.12 33.12 96.16 36.96 98.24C40.8 100.24 45 101.24 49.56 101.24C56.36 101.24 62.08 99.32 66.72 95.48V72.68ZM119.098 59.96C121.338 56.84 124.338 54.48 128.098 52.88C131.938 51.28 136.338 50.48 141.298 50.48V67.76C139.218 67.6 137.818 67.52 137.098 67.52C131.738 67.52 127.538 69.04 124.498 72.08C121.458 75.04 119.938 79.52 119.938 85.52V116H101.218V51.44H119.098V59.96ZM217.363 51.44V116H199.483V108.56C194.843 114.16 188.123 116.96 179.323 116.96C173.243 116.96 167.723 115.6 162.763 112.88C157.883 110.16 154.043 106.28 151.243 101.24C148.443 96.2 147.043 90.36 147.043 83.72C147.043 77.08 148.443 71.24 151.243 66.2C154.043 61.16 157.883 57.28 162.763 54.56C167.723 51.84 173.243 50.48 179.323 50.48C187.563 50.48 194.003 53.08 198.643 58.28V51.44H217.363ZM182.563 101.6C187.283 101.6 191.203 100 194.323 96.8C197.443 93.52 199.003 89.16 199.003 83.72C199.003 78.28 197.443 73.96 194.323 70.76C191.203 67.48 187.283 65.84 182.563 65.84C177.763 65.84 173.803 67.48 170.683 70.76C167.563 73.96 166.003 78.28 166.003 83.72C166.003 89.16 167.563 93.52 170.683 96.8C173.803 100 177.763 101.6 182.563 101.6ZM511.374 51.44H530.094V116H511.374V51.44ZM520.734 42.44C517.294 42.44 514.494 41.44 512.334 39.44C510.174 37.44 509.094 34.96 509.094 32C509.094 29.04 510.174 26.56 512.334 24.56C514.494 22.56 517.294 21.56 520.734 21.56C524.174 21.56 526.974 22.52 529.134 24.44C531.294 26.36 532.374 28.76 532.374 31.64C532.374 34.76 531.294 37.36 529.134 39.44C526.974 41.44 524.174 42.44 520.734 42.44ZM578.668 116.96C571.788 116.96 565.588 115.56 560.068 112.76C554.628 109.88 550.348 105.92 547.228 100.88C544.188 95.84 542.668 90.12 542.668 83.72C542.668 77.32 544.188 71.6 547.228 66.56C550.348 61.52 554.628 57.6 560.068 54.8C565.588 51.92 571.788 50.48 578.668 50.48C585.468 50.48 591.388 51.92 596.428 54.8C601.548 57.6 605.268 61.64 607.588 66.92L593.068 74.72C589.708 68.8 584.868 65.84 578.548 65.84C573.668 65.84 569.628 67.44 566.428 70.64C563.228 73.84 561.628 78.2 561.628 83.72C561.628 89.24 563.228 93.6 566.428 96.8C569.628 100 573.668 101.6 578.548 101.6C584.948 101.6 589.788 98.64 593.068 92.72L607.588 100.64C605.268 105.76 601.548 109.76 596.428 112.64C591.388 115.52 585.468 116.96 578.668 116.96ZM683.066 51.44V116H665.186V108.56C660.546 114.16 653.826 116.96 645.026 116.96C638.946 116.96 633.426 115.6 628.466 112.88C623.586 110.16 619.746 106.28 616.946 101.24C614.146 96.2 612.746 90.36 612.746 83.72C612.746 77.08 614.146 71.24 616.946 66.2C619.746 61.16 623.586 57.28 628.466 54.56C633.426 51.84 638.946 50.48 645.026 50.48C653.266 50.48 659.706 53.08 664.346 58.28V51.44H683.066ZM648.266 101.6C652.986 101.6 656.906 100 660.026 96.8C663.146 93.52 664.706 89.16 664.706 83.72C664.706 78.28 663.146 73.96 660.026 70.76C656.906 67.48 652.986 65.84 648.266 65.84C643.466 65.84 639.506 67.48 636.386 70.76C633.266 73.96 631.706 78.28 631.706 83.72C631.706 89.16 633.266 93.52 636.386 96.8C639.506 100 643.466 101.6 648.266 101.6Z" fill="white"/>
<path d="M317.375 50.48C325.455 50.48 331.855 52.88 336.575 57.68C341.375 62.4 343.775 69.52 343.775 79.04V116H325.055V81.92C325.055 76.8 323.975 73 321.815 70.52C319.735 67.96 316.735 66.68 312.815 66.68C308.415 66.68 304.935 68.12 302.375 71C299.815 73.8 298.535 78 298.535 83.6V116H279.815V81.92C279.815 71.76 275.735 66.68 267.575 66.68C263.255 66.68 259.815 68.12 257.255 71C254.695 73.8 253.415 78 253.415 83.6V116H234.695V51.44H252.575V58.88C254.975 56.16 257.895 54.08 261.335 52.64C264.855 51.2 268.695 50.48 272.855 50.48C277.415 50.48 281.535 51.4 285.215 53.24C288.895 55 291.855 57.6 294.095 61.04C296.735 57.68 300.055 55.08 304.055 53.24C308.135 51.4 312.575 50.48 317.375 50.48ZM466.683 50.48C472.683 50.48 478.123 51.88 483.003 54.68C487.963 57.4 491.843 61.28 494.643 66.32C497.443 71.28 498.843 77.08 498.843 83.72C498.843 90.36 497.443 96.2 494.643 101.24C491.843 106.2 487.963 110.08 483.003 112.88C478.123 115.6 472.683 116.96 466.683 116.96C458.443 116.96 451.963 114.36 447.243 109.16V139.28H428.523V51.44H446.403V58.88C451.043 53.28 457.803 50.48 466.683 50.48ZM463.443 101.6C468.243 101.6 472.163 100 475.203 96.8C478.323 93.52 479.883 89.16 479.883 83.72C479.883 78.28 478.323 73.96 475.203 70.76C472.163 67.48 468.243 65.84 463.443 65.84C458.643 65.84 454.683 67.48 451.563 70.76C448.523 73.96 447.003 78.28 447.003 83.72C447.003 89.16 448.523 93.52 451.563 96.8C454.683 100 458.643 101.6 463.443 101.6Z" fill="#FF2B6C"/>
<path fill-rule="evenodd" clip-rule="evenodd" d="M410.125 61.0416C423.403 74.3195 423.403 95.8471 410.125 109.125L386.083 133.167L362.042 109.125C348.764 95.8471 348.764 74.3195 362.042 61.0416C375.319 47.7638 396.847 47.7638 410.125 61.0416ZM373.138 98.0289C380.287 105.178 391.879 105.178 399.028 98.0289C406.178 90.8793 406.178 79.2875 399.028 72.1379C391.879 64.9883 380.287 64.9883 373.138 72.1379C365.988 79.2875 365.988 90.8793 373.138 98.0289Z" fill="#FF2B6C"/>
</svg>
