<svg width="692" height="146" viewBox="0 0 692 146" fill="none" xmlns="http://www.w3.org/2000/svg">
<path d="M66.72 72.68H84.48V116H69.84V110.96C64 115.28 56.48 117.44 47.28 117.44C39.52 117.44 32.4 115.76 25.92 112.4C19.44 109.04 14.28 104.16 10.44 97.76C6.6 91.28 4.68 83.6 4.68 74.72C4.68 66.16 6.64 58.56 10.56 51.92C14.56 45.2 20.08 39.96 27.12 36.2C34.16 32.44 42.08 30.56 50.88 30.56C58.24 30.56 64.92 31.8 70.92 34.28C76.92 36.76 81.96 40.36 86.04 45.08L73.56 56.6C67.56 50.28 60.32 47.12 51.84 47.12C46.48 47.12 41.72 48.28 37.56 50.6C33.4 52.84 30.16 56.04 27.84 60.2C25.52 64.36 24.36 69.16 24.36 74.6C24.36 80.28 25.48 85.12 27.72 89.12C30.04 93.12 33.12 96.16 36.96 98.24C40.8 100.24 45 101.24 49.56 101.24C56.36 101.24 62.08 99.32 66.72 95.48V72.68ZM119.098 59.96C121.338 56.84 124.338 54.48 128.098 52.88C131.938 51.28 136.338 50.48 141.298 50.48V67.76C139.218 67.6 137.818 67.52 137.098 67.52C131.738 67.52 127.538 69.04 124.498 72.08C121.458 75.04 119.938 79.52 119.938 85.52V116H101.218V51.44H119.098V59.96ZM217.363 51.44V116H199.483V108.56C194.843 114.16 188.123 116.96 179.323 116.96C173.243 116.96 167.723 115.6 162.763 112.88C157.883 110.16 154.043 106.28 151.243 101.24C148.443 96.2 147.043 90.36 147.043 83.72C147.043 77.08 148.443 71.24 151.243 66.2C154.043 61.16 157.883 57.28 162.763 54.56C167.723 51.84 173.243 50.48 179.323 50.48C187.563 50.48 194.003 53.08 198.643 58.28V51.44H217.363ZM182.563 101.6C187.283 101.6 191.203 100 194.323 96.8C197.443 93.52 199.003 89.16 199.003 83.72C199.003 78.28 197.443 73.96 194.323 70.76C191.203 67.48 187.283 65.84 182.563 65.84C177.763 65.84 173.803 67.48 170.683 70.76C167.563 73.96 166.003 78.28 166.003 83.72C166.003 89.16 167.563 93.52 170.683 96.8C173.803 100 177.763 101.6 182.563 101.6ZM511.374 51.44H530.094V116H511.374V51.44ZM520.734 42.44C517.294 42.44 514.494 41.44 512.334 39.44C510.174 37.44 509.094 34.96 509.094 32C509.094 29.04 510.174 26.56 512.334 24.56C514.494 22.56 517.294 21.56 520.734 21.56C524.174 21.56 526.974 22.52 529.134 24.44C531.294 26.36 532.374 28.76 532.374 31.64C532.374 34.76 531.294 37.36 529.134 39.44C526.974 41.44 524.174 42.44 520.734 42.44ZM578.668 116.96C571.788 116.96 565.588 115.56 560.068 112.76C554.628 109.88 550.348 105.92 547.228 100.88C544.188 95.84 542.668 90.12 542.668 83.72C542.668 77.32 544.188 71.6 547.228 66.56C550.348 61.52 554.628 57.6 560.068 54.8C565.588 51.92 571.788 50.48 578.668 50.48C585.468 50.48 591.388 51.92 596.428 54.8C601.548 57.6 605.268 61.64 607.588 66.92L593.068 74.72C589.708 68.8 584.868 65.84 578.548 65.84C573.668 65.84 569.628 67.44 566.428 70.64C563.228 73.84 561.628 78.2 561.628 83.72C561.628 89.24 563.228 93.6 566.428 96.8C569.628 100 573.668 101.6 578.548 101.6C584.948 101.6 589.788 98.64 593.068 92.72L607.588 100.64C605.268 105.76 601.548 109.76 596.428 112.64C591.388 115.52 585.468 116.96 578.668 116.96ZM683.066 51.44V116H665.186V108.56C660.546 114.16 653.826 116.96 645.026 116.96C638.946 116.96 633.426 115.6 628.466 112.88C623.586 110.16 619.746 106.28 616.946 101.24C614.146 96.2 612.746 90.36 612.746 83.72C612.746 77.08 614.146 71.24 616.946 66.2C619.746 61.16 623.586 57.28 628.466 54.56C633.426 51.84 638.946 50.48 645.026 50.48C653.266 50.48 659.706 53.08 664.346 58.28V51.44H683.066ZM648.266 101.6C652.986 101.6 656.906 100 660.026 96.8C663.146 93.52 664.706 89.16 664.706 83.72C664.706 78.28 663.146 73.96 660.026 70.76C656.906 67.48 652.986 65.84 648.266 65.84C643.466 65.84 639.506 67.48 636.386 70.76C633.266 73.96 631.706 78.28 631.706 83.72C631.706 89.16 633.266 93.52 636.386 96.8C639.506 100 643.466 101.6 648.266 101.6Z" fill="#262626"/>
<path d="M317.375 50.48C325.455 50.48 331.855 52.88 336.575 57.68C341.375 62.4 343.775 69.52 343.775 79.04V116H325.055V81.92C325.055 76.8 323.975 73 321.815 70.52C319.735 67.96 316.735 66.68 312.815 66.68C308.415 66.68 304.935 68.12 302.375 71C299.815 73.8 298.535 78 298.535 83.6V116H279.815V81.92C279.815 71.76 275.735 66.68 267.575 66.68C263.255 66.68 259.815 68.12 257.255 71C254.695 73.8 253.415 78 253.415 83.6V116H234.695V51.44H252.575V58.88C254.975 56.16 257.895 54.08 261.335 52.64C264.855 51.2 268.695 50.48 272.855 50.48C277.415 50.48 281.535 51.4 285.215 53.24C288.895 55 291.855 57.6 294.095 61.04C296.735 57.68 300.055 55.08 304.055 53.24C308.135 51.4 312.575 50.48 317.375 50.48ZM466.683 50.48C472.683 50.48 478.123 51.88 483.003 54.68C487.963 57.4 491.843 61.28 494.643 66.32C497.443 71.28 498.843 77.08 498.843 83.72C498.843 90.36 497.443 96.2 494.643 101.24C491.843 106.2 487.963 110.08 483.003 112.88C478.123 115.6 472.683 116.96 466.683 116.96C458.443 116.96 451.963 114.36 447.243 109.16V139.28H428.523V51.44H446.403V58.88C451.043 53.28 457.803 50.48 466.683 50.48ZM463.443 101.6C468.243 101.6 472.163 100 475.203 96.8C478.323 93.52 479.883 89.16 479.883 83.72C479.883 78.28 478.323 73.96 475.203 70.76C472.163 67.48 468.243 65.84 463.443 65.84C458.643 65.84 454.683 67.48 451.563 70.76C448.523 73.96 447.003 78.28 447.003 83.72C447.003 89.16 448.523 93.52 451.563 96.8C454.683 100 458.643 101.6 463.443 101.6Z" fill="#FF2B6C"/>
<path fill-rule="evenodd" clip-rule="evenodd" d="M410.125 61.0416C423.403 74.3195 423.403 95.8471 410.125 109.125L386.083 133.167L362.042 109.125C348.764 95.8471 348.764 74.3195 362.042 61.0416C375.319 47.7638 396.847 47.7638 410.125 61.0416ZM373.138 98.0289C380.287 105.178 391.879 105.178 399.028 98.0289C406.178 90.8793 406.178 79.2875 399.028 72.1379C391.879 64.9883 380.287 64.9883 373.138 72.1379C365.988 79.2875 365.988 90.8793 373.138 98.0289Z" fill="#FF2B6C"/>
</svg>
