<svg width="105" height="86" viewBox="0 0 105 86" fill="none" xmlns="http://www.w3.org/2000/svg">
<path d="M19.2587 61.4285H85.668L104.927 85.9999H0L19.2587 61.4285Z" fill="#C4C4C4"/>
<path d="M19.2588 61.4285H85.6681L52.4634 85.9999L19.2588 61.4285Z" fill="#CECECE"/>
<path fill-rule="evenodd" clip-rule="evenodd" d="M69.0278 49.6932L69.0277 49.6933L69.0278 49.6934L52.4633 66.2578L35.8989 49.6934L35.899 49.6933L35.899 49.6932C26.7507 40.545 26.7507 25.7127 35.899 16.5644C45.0472 7.41614 59.8795 7.41614 69.0278 16.5644C78.1761 25.7127 78.1761 40.545 69.0278 49.6932ZM44.8183 40.774C49.0405 44.9963 55.8862 44.9963 60.1085 40.774C64.3308 36.5517 64.3308 29.706 60.1085 25.4838C55.8862 21.2615 49.0405 21.2615 44.8183 25.4838C40.596 29.706 40.596 36.5517 44.8183 40.774Z" fill="#FF2B6C"/>
<ellipse cx="52.4634" cy="73.0504" rx="11.6216" ry="2.65637" fill="#8C8C8C"/>
<circle cx="38" cy="19" r="12" fill="white" stroke="black" stroke-width="2"/>
<circle cx="41" cy="16" r="5" fill="black"/>
<circle cx="39.5" cy="14.5" r="1.5" fill="white"/>
<circle cx="66" cy="19" r="12" fill="white" stroke="black" stroke-width="2"/>
<circle cx="69" cy="16" r="5" fill="black"/>
<circle cx="67.5" cy="14.5" r="1.5" fill="white"/>
</svg>
